<mxfile host="app.diagrams.net" modified="2021-09-17T03:11:45.342Z" agent="5.0 (Windows)" etag="pB86rknY7DwKzedMIjOR" version="15.2.7" type="github">
  <diagram id="C5RBs43oDa-KdzZeNtuy" name="Page-1">
    <mxGraphModel dx="1673" dy="945" grid="1" gridSize="10" guides="1" tooltips="1" connect="1" arrows="1" fold="1" page="1" pageScale="1" pageWidth="827" pageHeight="1169" math="0" shadow="0">
      <root>
        <mxCell id="WIyWlLk6GJQsqaUBKTNV-0" />
        <mxCell id="WIyWlLk6GJQsqaUBKTNV-1" parent="WIyWlLk6GJQsqaUBKTNV-0" />
        <mxCell id="2eYa-I5nlKgrahpi1qqB-14" style="edgeStyle=orthogonalEdgeStyle;rounded=0;orthogonalLoop=1;jettySize=auto;html=1;endArrow=none;endFill=0;" parent="WIyWlLk6GJQsqaUBKTNV-1" source="2eYa-I5nlKgrahpi1qqB-0" target="2eYa-I5nlKgrahpi1qqB-1" edge="1">
          <mxGeometry relative="1" as="geometry">
            <Array as="points">
              <mxPoint x="220" y="170" />
              <mxPoint x="120" y="170" />
            </Array>
          </mxGeometry>
        </mxCell>
        <mxCell id="2eYa-I5nlKgrahpi1qqB-15" style="edgeStyle=orthogonalEdgeStyle;rounded=0;orthogonalLoop=1;jettySize=auto;html=1;endArrow=none;endFill=0;" parent="WIyWlLk6GJQsqaUBKTNV-1" source="2eYa-I5nlKgrahpi1qqB-0" target="2eYa-I5nlKgrahpi1qqB-2" edge="1">
          <mxGeometry relative="1" as="geometry" />
        </mxCell>
        <mxCell id="2eYa-I5nlKgrahpi1qqB-24" style="edgeStyle=orthogonalEdgeStyle;rounded=0;orthogonalLoop=1;jettySize=auto;html=1;entryX=0.5;entryY=0;entryDx=0;entryDy=0;endArrow=none;endFill=0;" parent="WIyWlLk6GJQsqaUBKTNV-1" source="2eYa-I5nlKgrahpi1qqB-0" target="2eYa-I5nlKgrahpi1qqB-22" edge="1">
          <mxGeometry relative="1" as="geometry">
            <Array as="points">
              <mxPoint x="220" y="170" />
              <mxPoint x="320" y="170" />
            </Array>
          </mxGeometry>
        </mxCell>
        <mxCell id="2eYa-I5nlKgrahpi1qqB-0" value="simpleCalculator" style="rounded=0;whiteSpace=wrap;html=1;" parent="WIyWlLk6GJQsqaUBKTNV-1" vertex="1">
          <mxGeometry x="160" y="120" width="120" height="30" as="geometry" />
        </mxCell>
        <mxCell id="2eYa-I5nlKgrahpi1qqB-1" value="inputNum" style="rounded=0;whiteSpace=wrap;html=1;" parent="WIyWlLk6GJQsqaUBKTNV-1" vertex="1">
          <mxGeometry x="80" y="190" width="80" height="30" as="geometry" />
        </mxCell>
        <mxCell id="2eYa-I5nlKgrahpi1qqB-9" style="edgeStyle=orthogonalEdgeStyle;rounded=0;orthogonalLoop=1;jettySize=auto;html=1;endArrow=none;endFill=0;" parent="WIyWlLk6GJQsqaUBKTNV-1" source="2eYa-I5nlKgrahpi1qqB-2" target="2eYa-I5nlKgrahpi1qqB-7" edge="1">
          <mxGeometry relative="1" as="geometry">
            <Array as="points">
              <mxPoint x="220" y="250" />
              <mxPoint x="330" y="250" />
            </Array>
          </mxGeometry>
        </mxCell>
        <mxCell id="2eYa-I5nlKgrahpi1qqB-11" style="edgeStyle=orthogonalEdgeStyle;rounded=0;orthogonalLoop=1;jettySize=auto;html=1;entryX=0.5;entryY=0;entryDx=0;entryDy=0;endArrow=none;endFill=0;" parent="WIyWlLk6GJQsqaUBKTNV-1" source="2eYa-I5nlKgrahpi1qqB-2" target="2eYa-I5nlKgrahpi1qqB-6" edge="1">
          <mxGeometry relative="1" as="geometry" />
        </mxCell>
        <mxCell id="2eYa-I5nlKgrahpi1qqB-12" style="edgeStyle=orthogonalEdgeStyle;rounded=0;orthogonalLoop=1;jettySize=auto;html=1;entryX=0.5;entryY=0;entryDx=0;entryDy=0;endArrow=none;endFill=0;" parent="WIyWlLk6GJQsqaUBKTNV-1" source="2eYa-I5nlKgrahpi1qqB-2" target="2eYa-I5nlKgrahpi1qqB-3" edge="1">
          <mxGeometry relative="1" as="geometry" />
        </mxCell>
        <mxCell id="2eYa-I5nlKgrahpi1qqB-13" style="edgeStyle=orthogonalEdgeStyle;rounded=0;orthogonalLoop=1;jettySize=auto;html=1;entryX=0.5;entryY=0;entryDx=0;entryDy=0;endArrow=none;endFill=0;" parent="WIyWlLk6GJQsqaUBKTNV-1" source="2eYa-I5nlKgrahpi1qqB-2" target="2eYa-I5nlKgrahpi1qqB-4" edge="1">
          <mxGeometry relative="1" as="geometry">
            <Array as="points">
              <mxPoint x="220" y="250" />
              <mxPoint x="110" y="250" />
            </Array>
          </mxGeometry>
        </mxCell>
        <mxCell id="2eYa-I5nlKgrahpi1qqB-2" value="inputMenu" style="rounded=0;whiteSpace=wrap;html=1;" parent="WIyWlLk6GJQsqaUBKTNV-1" vertex="1">
          <mxGeometry x="180" y="190" width="80" height="30" as="geometry" />
        </mxCell>
        <mxCell id="2eYa-I5nlKgrahpi1qqB-3" value="subtract" style="rounded=0;whiteSpace=wrap;html=1;" parent="WIyWlLk6GJQsqaUBKTNV-1" vertex="1">
          <mxGeometry x="150" y="280" width="70" height="30" as="geometry" />
        </mxCell>
        <mxCell id="2eYa-I5nlKgrahpi1qqB-4" value="add" style="rounded=0;whiteSpace=wrap;html=1;" parent="WIyWlLk6GJQsqaUBKTNV-1" vertex="1">
          <mxGeometry x="80" y="280" width="60" height="30" as="geometry" />
        </mxCell>
        <mxCell id="2eYa-I5nlKgrahpi1qqB-6" value="multiply" style="rounded=0;whiteSpace=wrap;html=1;" parent="WIyWlLk6GJQsqaUBKTNV-1" vertex="1">
          <mxGeometry x="230" y="280" width="60" height="30" as="geometry" />
        </mxCell>
        <mxCell id="2eYa-I5nlKgrahpi1qqB-7" value="divide" style="rounded=0;whiteSpace=wrap;html=1;" parent="WIyWlLk6GJQsqaUBKTNV-1" vertex="1">
          <mxGeometry x="300" y="280" width="60" height="30" as="geometry" />
        </mxCell>
        <mxCell id="2eYa-I5nlKgrahpi1qqB-35" style="edgeStyle=orthogonalEdgeStyle;rounded=0;orthogonalLoop=1;jettySize=auto;html=1;entryX=0.5;entryY=0;entryDx=0;entryDy=0;endArrow=classicThin;endFill=1;" parent="WIyWlLk6GJQsqaUBKTNV-1" source="2eYa-I5nlKgrahpi1qqB-16" target="2eYa-I5nlKgrahpi1qqB-32" edge="1">
          <mxGeometry relative="1" as="geometry" />
        </mxCell>
        <mxCell id="2eYa-I5nlKgrahpi1qqB-16" value="START" style="rounded=1;whiteSpace=wrap;html=1;arcSize=50;" parent="WIyWlLk6GJQsqaUBKTNV-1" vertex="1">
          <mxGeometry x="190" y="450" width="80" height="30" as="geometry" />
        </mxCell>
        <mxCell id="2eYa-I5nlKgrahpi1qqB-29" style="edgeStyle=orthogonalEdgeStyle;rounded=0;orthogonalLoop=1;jettySize=auto;html=1;endArrow=classicThin;endFill=1;" parent="WIyWlLk6GJQsqaUBKTNV-1" source="2eYa-I5nlKgrahpi1qqB-18" target="2eYa-I5nlKgrahpi1qqB-21" edge="1">
          <mxGeometry relative="1" as="geometry" />
        </mxCell>
        <mxCell id="2eYa-I5nlKgrahpi1qqB-18" value="inputNum" style="shape=process;whiteSpace=wrap;html=1;backgroundOutline=1;" parent="WIyWlLk6GJQsqaUBKTNV-1" vertex="1">
          <mxGeometry x="170" y="580" width="120" height="40" as="geometry" />
        </mxCell>
        <mxCell id="2eYa-I5nlKgrahpi1qqB-30" style="edgeStyle=orthogonalEdgeStyle;rounded=0;orthogonalLoop=1;jettySize=auto;html=1;endArrow=classicThin;endFill=1;" parent="WIyWlLk6GJQsqaUBKTNV-1" source="2eYa-I5nlKgrahpi1qqB-21" target="2eYa-I5nlKgrahpi1qqB-26" edge="1">
          <mxGeometry relative="1" as="geometry" />
        </mxCell>
        <mxCell id="2eYa-I5nlKgrahpi1qqB-21" value="inputMenu" style="shape=process;whiteSpace=wrap;html=1;backgroundOutline=1;" parent="WIyWlLk6GJQsqaUBKTNV-1" vertex="1">
          <mxGeometry x="170" y="650" width="120" height="40" as="geometry" />
        </mxCell>
        <mxCell id="2eYa-I5nlKgrahpi1qqB-22" value="showResult" style="rounded=0;whiteSpace=wrap;html=1;" parent="WIyWlLk6GJQsqaUBKTNV-1" vertex="1">
          <mxGeometry x="280" y="190" width="80" height="30" as="geometry" />
        </mxCell>
        <mxCell id="2eYa-I5nlKgrahpi1qqB-31" style="edgeStyle=orthogonalEdgeStyle;rounded=0;orthogonalLoop=1;jettySize=auto;html=1;endArrow=classicThin;endFill=1;" parent="WIyWlLk6GJQsqaUBKTNV-1" source="2eYa-I5nlKgrahpi1qqB-26" target="2eYa-I5nlKgrahpi1qqB-27" edge="1">
          <mxGeometry relative="1" as="geometry" />
        </mxCell>
        <mxCell id="2eYa-I5nlKgrahpi1qqB-26" value="showResult" style="shape=process;whiteSpace=wrap;html=1;backgroundOutline=1;" parent="WIyWlLk6GJQsqaUBKTNV-1" vertex="1">
          <mxGeometry x="170" y="720" width="120" height="40" as="geometry" />
        </mxCell>
        <mxCell id="2eYa-I5nlKgrahpi1qqB-27" value="END" style="rounded=1;whiteSpace=wrap;html=1;arcSize=50;" parent="WIyWlLk6GJQsqaUBKTNV-1" vertex="1">
          <mxGeometry x="190" y="790" width="80" height="30" as="geometry" />
        </mxCell>
        <mxCell id="2eYa-I5nlKgrahpi1qqB-36" style="edgeStyle=orthogonalEdgeStyle;rounded=0;orthogonalLoop=1;jettySize=auto;html=1;entryX=0.5;entryY=0;entryDx=0;entryDy=0;endArrow=classicThin;endFill=1;" parent="WIyWlLk6GJQsqaUBKTNV-1" source="2eYa-I5nlKgrahpi1qqB-32" target="2eYa-I5nlKgrahpi1qqB-18" edge="1">
          <mxGeometry relative="1" as="geometry" />
        </mxCell>
        <mxCell id="2eYa-I5nlKgrahpi1qqB-32" value="&lt;div&gt;DECLARE&lt;/div&gt;&lt;div&gt;num1, num2, result&lt;br&gt;&lt;/div&gt;" style="rounded=0;whiteSpace=wrap;html=1;" parent="WIyWlLk6GJQsqaUBKTNV-1" vertex="1">
          <mxGeometry x="170" y="500" width="120" height="60" as="geometry" />
        </mxCell>
        <mxCell id="2eYa-I5nlKgrahpi1qqB-44" style="edgeStyle=orthogonalEdgeStyle;rounded=0;orthogonalLoop=1;jettySize=auto;html=1;endArrow=classicThin;endFill=1;" parent="WIyWlLk6GJQsqaUBKTNV-1" source="2eYa-I5nlKgrahpi1qqB-37" target="2eYa-I5nlKgrahpi1qqB-40" edge="1">
          <mxGeometry relative="1" as="geometry" />
        </mxCell>
        <mxCell id="2eYa-I5nlKgrahpi1qqB-37" value="START" style="rounded=1;whiteSpace=wrap;html=1;arcSize=50;" parent="WIyWlLk6GJQsqaUBKTNV-1" vertex="1">
          <mxGeometry x="486" y="450" width="80" height="30" as="geometry" />
        </mxCell>
        <mxCell id="2eYa-I5nlKgrahpi1qqB-38" value="END" style="rounded=1;whiteSpace=wrap;html=1;arcSize=50;" parent="WIyWlLk6GJQsqaUBKTNV-1" vertex="1">
          <mxGeometry x="486" y="680" width="80" height="30" as="geometry" />
        </mxCell>
        <mxCell id="2eYa-I5nlKgrahpi1qqB-45" style="edgeStyle=orthogonalEdgeStyle;rounded=0;orthogonalLoop=1;jettySize=auto;html=1;entryX=0;entryY=0.5;entryDx=0;entryDy=0;endArrow=classicThin;endFill=1;" parent="WIyWlLk6GJQsqaUBKTNV-1" source="2eYa-I5nlKgrahpi1qqB-40" target="2eYa-I5nlKgrahpi1qqB-41" edge="1">
          <mxGeometry relative="1" as="geometry" />
        </mxCell>
        <mxCell id="2eYa-I5nlKgrahpi1qqB-40" value="PRINT &quot;Input number 1:" style="shape=parallelogram;perimeter=parallelogramPerimeter;whiteSpace=wrap;html=1;fixedSize=1;spacingLeft=10;spacingBottom=10;spacingRight=10;spacingTop=10;" parent="WIyWlLk6GJQsqaUBKTNV-1" vertex="1">
          <mxGeometry x="461" y="510" width="130" height="40" as="geometry" />
        </mxCell>
        <mxCell id="2eYa-I5nlKgrahpi1qqB-46" style="edgeStyle=orthogonalEdgeStyle;rounded=0;orthogonalLoop=1;jettySize=auto;html=1;entryX=0.5;entryY=0;entryDx=0;entryDy=0;endArrow=classicThin;endFill=1;" parent="WIyWlLk6GJQsqaUBKTNV-1" source="2eYa-I5nlKgrahpi1qqB-41" target="2eYa-I5nlKgrahpi1qqB-42" edge="1">
          <mxGeometry relative="1" as="geometry">
            <Array as="points">
              <mxPoint x="691" y="570" />
              <mxPoint x="526" y="570" />
            </Array>
          </mxGeometry>
        </mxCell>
        <mxCell id="2eYa-I5nlKgrahpi1qqB-41" value="GET num1" style="shape=parallelogram;perimeter=parallelogramPerimeter;whiteSpace=wrap;html=1;fixedSize=1;spacingLeft=10;spacingBottom=10;spacingRight=10;spacingTop=10;" parent="WIyWlLk6GJQsqaUBKTNV-1" vertex="1">
          <mxGeometry x="626" y="510" width="130" height="40" as="geometry" />
        </mxCell>
        <mxCell id="2eYa-I5nlKgrahpi1qqB-47" style="edgeStyle=orthogonalEdgeStyle;rounded=0;orthogonalLoop=1;jettySize=auto;html=1;endArrow=classicThin;endFill=1;" parent="WIyWlLk6GJQsqaUBKTNV-1" source="2eYa-I5nlKgrahpi1qqB-42" target="2eYa-I5nlKgrahpi1qqB-43" edge="1">
          <mxGeometry relative="1" as="geometry" />
        </mxCell>
        <mxCell id="2eYa-I5nlKgrahpi1qqB-42" value="PRINT &quot;Input number 2:" style="shape=parallelogram;perimeter=parallelogramPerimeter;whiteSpace=wrap;html=1;fixedSize=1;spacingLeft=10;spacingBottom=10;spacingRight=10;spacingTop=10;" parent="WIyWlLk6GJQsqaUBKTNV-1" vertex="1">
          <mxGeometry x="461" y="590" width="130" height="40" as="geometry" />
        </mxCell>
        <mxCell id="2eYa-I5nlKgrahpi1qqB-48" style="edgeStyle=orthogonalEdgeStyle;rounded=0;orthogonalLoop=1;jettySize=auto;html=1;entryX=0.5;entryY=0;entryDx=0;entryDy=0;endArrow=classicThin;endFill=1;" parent="WIyWlLk6GJQsqaUBKTNV-1" source="2eYa-I5nlKgrahpi1qqB-43" target="2eYa-I5nlKgrahpi1qqB-38" edge="1">
          <mxGeometry relative="1" as="geometry">
            <Array as="points">
              <mxPoint x="691" y="650" />
              <mxPoint x="526" y="650" />
            </Array>
          </mxGeometry>
        </mxCell>
        <mxCell id="2eYa-I5nlKgrahpi1qqB-43" value="GET num2" style="shape=parallelogram;perimeter=parallelogramPerimeter;whiteSpace=wrap;html=1;fixedSize=1;spacingLeft=10;spacingBottom=10;spacingRight=10;spacingTop=10;" parent="WIyWlLk6GJQsqaUBKTNV-1" vertex="1">
          <mxGeometry x="626" y="590" width="130" height="40" as="geometry" />
        </mxCell>
        <mxCell id="2eYa-I5nlKgrahpi1qqB-56" style="edgeStyle=orthogonalEdgeStyle;curved=1;rounded=0;orthogonalLoop=1;jettySize=auto;html=1;endArrow=classicThin;endFill=1;" parent="WIyWlLk6GJQsqaUBKTNV-1" source="2eYa-I5nlKgrahpi1qqB-49" target="2eYa-I5nlKgrahpi1qqB-51" edge="1">
          <mxGeometry relative="1" as="geometry" />
        </mxCell>
        <mxCell id="2eYa-I5nlKgrahpi1qqB-49" value="START" style="rounded=1;whiteSpace=wrap;html=1;arcSize=50;" parent="WIyWlLk6GJQsqaUBKTNV-1" vertex="1">
          <mxGeometry x="485" y="820" width="80" height="30" as="geometry" />
        </mxCell>
        <mxCell id="2eYa-I5nlKgrahpi1qqB-50" value="END" style="rounded=1;whiteSpace=wrap;html=1;arcSize=50;" parent="WIyWlLk6GJQsqaUBKTNV-1" vertex="1">
          <mxGeometry x="485" y="1080" width="80" height="30" as="geometry" />
        </mxCell>
        <mxCell id="2eYa-I5nlKgrahpi1qqB-53" style="edgeStyle=orthogonalEdgeStyle;rounded=0;orthogonalLoop=1;jettySize=auto;html=1;entryX=1;entryY=0.5;entryDx=0;entryDy=0;endArrow=classicThin;endFill=1;curved=1;" parent="WIyWlLk6GJQsqaUBKTNV-1" source="2eYa-I5nlKgrahpi1qqB-51" target="2eYa-I5nlKgrahpi1qqB-50" edge="1">
          <mxGeometry relative="1" as="geometry">
            <Array as="points">
              <mxPoint x="665" y="920" />
              <mxPoint x="665" y="1095" />
            </Array>
          </mxGeometry>
        </mxCell>
        <mxCell id="2eYa-I5nlKgrahpi1qqB-54" style="edgeStyle=orthogonalEdgeStyle;curved=1;rounded=0;orthogonalLoop=1;jettySize=auto;html=1;endArrow=classicThin;endFill=1;" parent="WIyWlLk6GJQsqaUBKTNV-1" source="2eYa-I5nlKgrahpi1qqB-51" target="2eYa-I5nlKgrahpi1qqB-52" edge="1">
          <mxGeometry relative="1" as="geometry" />
        </mxCell>
        <mxCell id="2eYa-I5nlKgrahpi1qqB-51" value="result != &quot;&quot;" style="rhombus;whiteSpace=wrap;html=1;" parent="WIyWlLk6GJQsqaUBKTNV-1" vertex="1">
          <mxGeometry x="470" y="880" width="110" height="80" as="geometry" />
        </mxCell>
        <mxCell id="2eYa-I5nlKgrahpi1qqB-55" style="edgeStyle=orthogonalEdgeStyle;curved=1;rounded=0;orthogonalLoop=1;jettySize=auto;html=1;entryX=0.5;entryY=0;entryDx=0;entryDy=0;endArrow=classicThin;endFill=1;" parent="WIyWlLk6GJQsqaUBKTNV-1" source="2eYa-I5nlKgrahpi1qqB-52" target="2eYa-I5nlKgrahpi1qqB-50" edge="1">
          <mxGeometry relative="1" as="geometry" />
        </mxCell>
        <mxCell id="2eYa-I5nlKgrahpi1qqB-52" value="PRINT &quot;Result: &quot;, result" style="shape=parallelogram;perimeter=parallelogramPerimeter;whiteSpace=wrap;html=1;fixedSize=1;spacing=15;spacingTop=15;spacingLeft=15;spacingBottom=15;spacingRight=15;" parent="WIyWlLk6GJQsqaUBKTNV-1" vertex="1">
          <mxGeometry x="450" y="980" width="150" height="60" as="geometry" />
        </mxCell>
        <mxCell id="2eYa-I5nlKgrahpi1qqB-88" style="edgeStyle=orthogonalEdgeStyle;rounded=0;orthogonalLoop=1;jettySize=auto;html=1;entryX=0.5;entryY=0;entryDx=0;entryDy=0;endArrow=classicThin;endFill=1;" parent="WIyWlLk6GJQsqaUBKTNV-1" source="2eYa-I5nlKgrahpi1qqB-57" target="2eYa-I5nlKgrahpi1qqB-60" edge="1">
          <mxGeometry relative="1" as="geometry" />
        </mxCell>
        <mxCell id="2eYa-I5nlKgrahpi1qqB-57" value="START" style="rounded=1;whiteSpace=wrap;html=1;arcSize=50;" parent="WIyWlLk6GJQsqaUBKTNV-1" vertex="1">
          <mxGeometry x="1030" y="140" width="80" height="30" as="geometry" />
        </mxCell>
        <mxCell id="2eYa-I5nlKgrahpi1qqB-58" value="END" style="rounded=1;whiteSpace=wrap;html=1;arcSize=50;" parent="WIyWlLk6GJQsqaUBKTNV-1" vertex="1">
          <mxGeometry x="1031" y="620" width="80" height="30" as="geometry" />
        </mxCell>
        <mxCell id="2eYa-I5nlKgrahpi1qqB-87" style="edgeStyle=orthogonalEdgeStyle;rounded=0;orthogonalLoop=1;jettySize=auto;html=1;entryX=0.5;entryY=0;entryDx=0;entryDy=0;endArrow=classicThin;endFill=1;" parent="WIyWlLk6GJQsqaUBKTNV-1" source="2eYa-I5nlKgrahpi1qqB-60" target="2eYa-I5nlKgrahpi1qqB-61" edge="1">
          <mxGeometry relative="1" as="geometry" />
        </mxCell>
        <mxCell id="2eYa-I5nlKgrahpi1qqB-60" value="DECLARE menu" style="rounded=0;whiteSpace=wrap;html=1;" parent="WIyWlLk6GJQsqaUBKTNV-1" vertex="1">
          <mxGeometry x="1010" y="200" width="120" height="40" as="geometry" />
        </mxCell>
        <mxCell id="2eYa-I5nlKgrahpi1qqB-84" style="edgeStyle=orthogonalEdgeStyle;rounded=0;orthogonalLoop=1;jettySize=auto;html=1;endArrow=classicThin;endFill=1;" parent="WIyWlLk6GJQsqaUBKTNV-1" source="2eYa-I5nlKgrahpi1qqB-61" target="2eYa-I5nlKgrahpi1qqB-62" edge="1">
          <mxGeometry relative="1" as="geometry" />
        </mxCell>
        <mxCell id="2eYa-I5nlKgrahpi1qqB-61" value="PRINT&lt;br&gt;&quot;1. Sum \n&quot;&lt;br&gt;&quot;2. Difference \n&quot;&lt;br&gt;&quot;3. Product \n&quot;&lt;br&gt;&quot;4. Quotient \n&quot;" style="shape=parallelogram;perimeter=parallelogramPerimeter;whiteSpace=wrap;html=1;fixedSize=1;" parent="WIyWlLk6GJQsqaUBKTNV-1" vertex="1">
          <mxGeometry x="990" y="280" width="160" height="90" as="geometry" />
        </mxCell>
        <mxCell id="2eYa-I5nlKgrahpi1qqB-85" style="edgeStyle=orthogonalEdgeStyle;rounded=0;orthogonalLoop=1;jettySize=auto;html=1;endArrow=classicThin;endFill=1;" parent="WIyWlLk6GJQsqaUBKTNV-1" source="2eYa-I5nlKgrahpi1qqB-62" target="2eYa-I5nlKgrahpi1qqB-64" edge="1">
          <mxGeometry relative="1" as="geometry">
            <Array as="points">
              <mxPoint x="1250" y="380" />
              <mxPoint x="1071" y="380" />
            </Array>
          </mxGeometry>
        </mxCell>
        <mxCell id="2eYa-I5nlKgrahpi1qqB-62" value="GET menu" style="shape=parallelogram;perimeter=parallelogramPerimeter;whiteSpace=wrap;html=1;fixedSize=1;size=9.999999999999773;" parent="WIyWlLk6GJQsqaUBKTNV-1" vertex="1">
          <mxGeometry x="1200" y="310" width="100" height="30" as="geometry" />
        </mxCell>
        <mxCell id="2eYa-I5nlKgrahpi1qqB-69" style="edgeStyle=orthogonalEdgeStyle;rounded=0;orthogonalLoop=1;jettySize=auto;html=1;entryX=0.5;entryY=0;entryDx=0;entryDy=0;endArrow=classicThin;endFill=1;" parent="WIyWlLk6GJQsqaUBKTNV-1" source="2eYa-I5nlKgrahpi1qqB-64" target="2eYa-I5nlKgrahpi1qqB-65" edge="1">
          <mxGeometry relative="1" as="geometry">
            <Array as="points">
              <mxPoint x="1071" y="480" />
              <mxPoint x="920" y="480" />
            </Array>
          </mxGeometry>
        </mxCell>
        <mxCell id="2eYa-I5nlKgrahpi1qqB-70" style="edgeStyle=orthogonalEdgeStyle;rounded=0;orthogonalLoop=1;jettySize=auto;html=1;entryX=0.5;entryY=0;entryDx=0;entryDy=0;endArrow=classicThin;endFill=1;" parent="WIyWlLk6GJQsqaUBKTNV-1" source="2eYa-I5nlKgrahpi1qqB-64" target="2eYa-I5nlKgrahpi1qqB-66" edge="1">
          <mxGeometry relative="1" as="geometry">
            <Array as="points">
              <mxPoint x="1071" y="480" />
              <mxPoint x="1020" y="480" />
            </Array>
          </mxGeometry>
        </mxCell>
        <mxCell id="2eYa-I5nlKgrahpi1qqB-71" style="edgeStyle=orthogonalEdgeStyle;rounded=0;orthogonalLoop=1;jettySize=auto;html=1;entryX=0.5;entryY=0;entryDx=0;entryDy=0;endArrow=classicThin;endFill=1;" parent="WIyWlLk6GJQsqaUBKTNV-1" source="2eYa-I5nlKgrahpi1qqB-64" target="2eYa-I5nlKgrahpi1qqB-67" edge="1">
          <mxGeometry relative="1" as="geometry">
            <Array as="points">
              <mxPoint x="1071" y="480" />
              <mxPoint x="1120" y="480" />
            </Array>
          </mxGeometry>
        </mxCell>
        <mxCell id="2eYa-I5nlKgrahpi1qqB-72" style="edgeStyle=orthogonalEdgeStyle;rounded=0;orthogonalLoop=1;jettySize=auto;html=1;entryX=0.5;entryY=0;entryDx=0;entryDy=0;endArrow=classicThin;endFill=1;" parent="WIyWlLk6GJQsqaUBKTNV-1" source="2eYa-I5nlKgrahpi1qqB-64" target="2eYa-I5nlKgrahpi1qqB-68" edge="1">
          <mxGeometry relative="1" as="geometry">
            <Array as="points">
              <mxPoint x="1071" y="480" />
              <mxPoint x="1220" y="480" />
            </Array>
          </mxGeometry>
        </mxCell>
        <mxCell id="2eYa-I5nlKgrahpi1qqB-64" value="menu?" style="rhombus;whiteSpace=wrap;html=1;" parent="WIyWlLk6GJQsqaUBKTNV-1" vertex="1">
          <mxGeometry x="1022" y="400" width="98" height="60" as="geometry" />
        </mxCell>
        <mxCell id="2eYa-I5nlKgrahpi1qqB-73" style="edgeStyle=orthogonalEdgeStyle;rounded=0;orthogonalLoop=1;jettySize=auto;html=1;endArrow=classicThin;endFill=1;" parent="WIyWlLk6GJQsqaUBKTNV-1" source="2eYa-I5nlKgrahpi1qqB-65" target="2eYa-I5nlKgrahpi1qqB-58" edge="1">
          <mxGeometry relative="1" as="geometry">
            <Array as="points">
              <mxPoint x="920" y="580" />
              <mxPoint x="1071" y="580" />
            </Array>
          </mxGeometry>
        </mxCell>
        <mxCell id="2eYa-I5nlKgrahpi1qqB-65" value="add" style="shape=process;whiteSpace=wrap;html=1;backgroundOutline=1;" parent="WIyWlLk6GJQsqaUBKTNV-1" vertex="1">
          <mxGeometry x="880" y="510" width="80" height="40" as="geometry" />
        </mxCell>
        <mxCell id="2eYa-I5nlKgrahpi1qqB-74" style="edgeStyle=orthogonalEdgeStyle;rounded=0;orthogonalLoop=1;jettySize=auto;html=1;entryX=0.5;entryY=0;entryDx=0;entryDy=0;endArrow=classicThin;endFill=1;" parent="WIyWlLk6GJQsqaUBKTNV-1" source="2eYa-I5nlKgrahpi1qqB-66" target="2eYa-I5nlKgrahpi1qqB-58" edge="1">
          <mxGeometry relative="1" as="geometry">
            <Array as="points">
              <mxPoint x="1020" y="580" />
              <mxPoint x="1071" y="580" />
            </Array>
          </mxGeometry>
        </mxCell>
        <mxCell id="2eYa-I5nlKgrahpi1qqB-66" value="subtract" style="shape=process;whiteSpace=wrap;html=1;backgroundOutline=1;" parent="WIyWlLk6GJQsqaUBKTNV-1" vertex="1">
          <mxGeometry x="980" y="510" width="80" height="40" as="geometry" />
        </mxCell>
        <mxCell id="2eYa-I5nlKgrahpi1qqB-75" style="edgeStyle=orthogonalEdgeStyle;rounded=0;orthogonalLoop=1;jettySize=auto;html=1;entryX=0.5;entryY=0;entryDx=0;entryDy=0;endArrow=classicThin;endFill=1;" parent="WIyWlLk6GJQsqaUBKTNV-1" source="2eYa-I5nlKgrahpi1qqB-67" target="2eYa-I5nlKgrahpi1qqB-58" edge="1">
          <mxGeometry relative="1" as="geometry">
            <Array as="points">
              <mxPoint x="1120" y="580" />
              <mxPoint x="1071" y="580" />
            </Array>
          </mxGeometry>
        </mxCell>
        <mxCell id="2eYa-I5nlKgrahpi1qqB-67" value="multiply" style="shape=process;whiteSpace=wrap;html=1;backgroundOutline=1;" parent="WIyWlLk6GJQsqaUBKTNV-1" vertex="1">
          <mxGeometry x="1080" y="510" width="80" height="40" as="geometry" />
        </mxCell>
        <mxCell id="2eYa-I5nlKgrahpi1qqB-76" style="edgeStyle=orthogonalEdgeStyle;rounded=0;orthogonalLoop=1;jettySize=auto;html=1;endArrow=classicThin;endFill=1;entryX=0.5;entryY=0;entryDx=0;entryDy=0;" parent="WIyWlLk6GJQsqaUBKTNV-1" source="2eYa-I5nlKgrahpi1qqB-68" target="2eYa-I5nlKgrahpi1qqB-58" edge="1">
          <mxGeometry relative="1" as="geometry">
            <mxPoint x="1070" y="600" as="targetPoint" />
            <Array as="points">
              <mxPoint x="1220" y="580" />
              <mxPoint x="1071" y="580" />
            </Array>
          </mxGeometry>
        </mxCell>
        <mxCell id="2eYa-I5nlKgrahpi1qqB-68" value="divide" style="shape=process;whiteSpace=wrap;html=1;backgroundOutline=1;" parent="WIyWlLk6GJQsqaUBKTNV-1" vertex="1">
          <mxGeometry x="1180" y="510" width="80" height="40" as="geometry" />
        </mxCell>
        <mxCell id="2eYa-I5nlKgrahpi1qqB-77" value="1" style="text;html=1;strokeColor=none;fillColor=none;align=center;verticalAlign=middle;whiteSpace=wrap;rounded=0;" parent="WIyWlLk6GJQsqaUBKTNV-1" vertex="1">
          <mxGeometry x="920" y="480" width="20" height="20" as="geometry" />
        </mxCell>
        <mxCell id="2eYa-I5nlKgrahpi1qqB-78" value="2" style="text;html=1;strokeColor=none;fillColor=none;align=center;verticalAlign=middle;whiteSpace=wrap;rounded=0;" parent="WIyWlLk6GJQsqaUBKTNV-1" vertex="1">
          <mxGeometry x="1022" y="480" width="20" height="20" as="geometry" />
        </mxCell>
        <mxCell id="2eYa-I5nlKgrahpi1qqB-79" value="3" style="text;html=1;strokeColor=none;fillColor=none;align=center;verticalAlign=middle;whiteSpace=wrap;rounded=0;" parent="WIyWlLk6GJQsqaUBKTNV-1" vertex="1">
          <mxGeometry x="1120" y="480" width="20" height="20" as="geometry" />
        </mxCell>
        <mxCell id="2eYa-I5nlKgrahpi1qqB-80" value="4" style="text;html=1;strokeColor=none;fillColor=none;align=center;verticalAlign=middle;whiteSpace=wrap;rounded=0;" parent="WIyWlLk6GJQsqaUBKTNV-1" vertex="1">
          <mxGeometry x="1220" y="480" width="20" height="20" as="geometry" />
        </mxCell>
        <mxCell id="2eYa-I5nlKgrahpi1qqB-92" style="edgeStyle=orthogonalEdgeStyle;rounded=0;orthogonalLoop=1;jettySize=auto;html=1;endArrow=classicThin;endFill=1;" parent="WIyWlLk6GJQsqaUBKTNV-1" source="2eYa-I5nlKgrahpi1qqB-89" target="2eYa-I5nlKgrahpi1qqB-91" edge="1">
          <mxGeometry relative="1" as="geometry" />
        </mxCell>
        <mxCell id="2eYa-I5nlKgrahpi1qqB-89" value="START" style="rounded=1;whiteSpace=wrap;html=1;arcSize=50;" parent="WIyWlLk6GJQsqaUBKTNV-1" vertex="1">
          <mxGeometry x="1449.5" y="90" width="80" height="30" as="geometry" />
        </mxCell>
        <mxCell id="2eYa-I5nlKgrahpi1qqB-90" value="END" style="rounded=1;whiteSpace=wrap;html=1;arcSize=50;" parent="WIyWlLk6GJQsqaUBKTNV-1" vertex="1">
          <mxGeometry x="1450.5" y="220" width="80" height="30" as="geometry" />
        </mxCell>
        <mxCell id="2eYa-I5nlKgrahpi1qqB-93" style="edgeStyle=orthogonalEdgeStyle;rounded=0;orthogonalLoop=1;jettySize=auto;html=1;endArrow=classicThin;endFill=1;" parent="WIyWlLk6GJQsqaUBKTNV-1" source="2eYa-I5nlKgrahpi1qqB-91" target="2eYa-I5nlKgrahpi1qqB-90" edge="1">
          <mxGeometry relative="1" as="geometry" />
        </mxCell>
        <mxCell id="2eYa-I5nlKgrahpi1qqB-91" value="result = num1 + num2" style="rounded=0;whiteSpace=wrap;html=1;" parent="WIyWlLk6GJQsqaUBKTNV-1" vertex="1">
          <mxGeometry x="1410" y="150" width="160" height="40" as="geometry" />
        </mxCell>
        <mxCell id="2eYa-I5nlKgrahpi1qqB-94" style="edgeStyle=orthogonalEdgeStyle;rounded=0;orthogonalLoop=1;jettySize=auto;html=1;endArrow=classicThin;endFill=1;" parent="WIyWlLk6GJQsqaUBKTNV-1" source="2eYa-I5nlKgrahpi1qqB-95" target="2eYa-I5nlKgrahpi1qqB-98" edge="1">
          <mxGeometry relative="1" as="geometry" />
        </mxCell>
        <mxCell id="2eYa-I5nlKgrahpi1qqB-95" value="START" style="rounded=1;whiteSpace=wrap;html=1;arcSize=50;" parent="WIyWlLk6GJQsqaUBKTNV-1" vertex="1">
          <mxGeometry x="1450.5" y="540" width="80" height="30" as="geometry" />
        </mxCell>
        <mxCell id="2eYa-I5nlKgrahpi1qqB-96" value="END" style="rounded=1;whiteSpace=wrap;html=1;arcSize=50;" parent="WIyWlLk6GJQsqaUBKTNV-1" vertex="1">
          <mxGeometry x="1451.5" y="670" width="80" height="30" as="geometry" />
        </mxCell>
        <mxCell id="2eYa-I5nlKgrahpi1qqB-97" style="edgeStyle=orthogonalEdgeStyle;rounded=0;orthogonalLoop=1;jettySize=auto;html=1;endArrow=classicThin;endFill=1;" parent="WIyWlLk6GJQsqaUBKTNV-1" source="2eYa-I5nlKgrahpi1qqB-98" target="2eYa-I5nlKgrahpi1qqB-96" edge="1">
          <mxGeometry relative="1" as="geometry" />
        </mxCell>
        <mxCell id="2eYa-I5nlKgrahpi1qqB-98" value="result = num1 - num2" style="rounded=0;whiteSpace=wrap;html=1;" parent="WIyWlLk6GJQsqaUBKTNV-1" vertex="1">
          <mxGeometry x="1411" y="600" width="160" height="40" as="geometry" />
        </mxCell>
        <mxCell id="2eYa-I5nlKgrahpi1qqB-100" style="edgeStyle=orthogonalEdgeStyle;rounded=0;orthogonalLoop=1;jettySize=auto;html=1;endArrow=classicThin;endFill=1;" parent="WIyWlLk6GJQsqaUBKTNV-1" source="2eYa-I5nlKgrahpi1qqB-101" target="2eYa-I5nlKgrahpi1qqB-104" edge="1">
          <mxGeometry relative="1" as="geometry" />
        </mxCell>
        <mxCell id="2eYa-I5nlKgrahpi1qqB-101" value="START" style="rounded=1;whiteSpace=wrap;html=1;arcSize=50;" parent="WIyWlLk6GJQsqaUBKTNV-1" vertex="1">
          <mxGeometry x="1450" y="310" width="80" height="30" as="geometry" />
        </mxCell>
        <mxCell id="2eYa-I5nlKgrahpi1qqB-102" value="END" style="rounded=1;whiteSpace=wrap;html=1;arcSize=50;" parent="WIyWlLk6GJQsqaUBKTNV-1" vertex="1">
          <mxGeometry x="1451" y="440" width="80" height="30" as="geometry" />
        </mxCell>
        <mxCell id="2eYa-I5nlKgrahpi1qqB-103" style="edgeStyle=orthogonalEdgeStyle;rounded=0;orthogonalLoop=1;jettySize=auto;html=1;endArrow=classicThin;endFill=1;" parent="WIyWlLk6GJQsqaUBKTNV-1" source="2eYa-I5nlKgrahpi1qqB-104" target="2eYa-I5nlKgrahpi1qqB-102" edge="1">
          <mxGeometry relative="1" as="geometry" />
        </mxCell>
        <mxCell id="2eYa-I5nlKgrahpi1qqB-104" value="result = num1 *num2" style="rounded=0;whiteSpace=wrap;html=1;" parent="WIyWlLk6GJQsqaUBKTNV-1" vertex="1">
          <mxGeometry x="1410.5" y="370" width="160" height="40" as="geometry" />
        </mxCell>
        <mxCell id="2eYa-I5nlKgrahpi1qqB-112" style="edgeStyle=orthogonalEdgeStyle;rounded=0;orthogonalLoop=1;jettySize=auto;html=1;entryX=0.5;entryY=0;entryDx=0;entryDy=0;endArrow=classicThin;endFill=1;" parent="WIyWlLk6GJQsqaUBKTNV-1" source="2eYa-I5nlKgrahpi1qqB-106" target="2eYa-I5nlKgrahpi1qqB-110" edge="1">
          <mxGeometry relative="1" as="geometry" />
        </mxCell>
        <mxCell id="2eYa-I5nlKgrahpi1qqB-106" value="START" style="rounded=1;whiteSpace=wrap;html=1;arcSize=50;" parent="WIyWlLk6GJQsqaUBKTNV-1" vertex="1">
          <mxGeometry x="1029.5" y="720" width="80" height="30" as="geometry" />
        </mxCell>
        <mxCell id="2eYa-I5nlKgrahpi1qqB-107" value="END" style="rounded=1;whiteSpace=wrap;html=1;arcSize=50;" parent="WIyWlLk6GJQsqaUBKTNV-1" vertex="1">
          <mxGeometry x="1029.5" y="960" width="80" height="30" as="geometry" />
        </mxCell>
        <mxCell id="2eYa-I5nlKgrahpi1qqB-108" style="edgeStyle=orthogonalEdgeStyle;rounded=0;orthogonalLoop=1;jettySize=auto;html=1;endArrow=classicThin;endFill=1;" parent="WIyWlLk6GJQsqaUBKTNV-1" source="2eYa-I5nlKgrahpi1qqB-109" target="2eYa-I5nlKgrahpi1qqB-107" edge="1">
          <mxGeometry relative="1" as="geometry">
            <Array as="points">
              <mxPoint x="970" y="930" />
              <mxPoint x="1070" y="930" />
            </Array>
          </mxGeometry>
        </mxCell>
        <mxCell id="2eYa-I5nlKgrahpi1qqB-109" value="result = num1 / num2" style="rounded=0;whiteSpace=wrap;html=1;" parent="WIyWlLk6GJQsqaUBKTNV-1" vertex="1">
          <mxGeometry x="900" y="858" width="140" height="40" as="geometry" />
        </mxCell>
        <mxCell id="2eYa-I5nlKgrahpi1qqB-114" style="edgeStyle=orthogonalEdgeStyle;rounded=0;orthogonalLoop=1;jettySize=auto;html=1;endArrow=classicThin;endFill=1;" parent="WIyWlLk6GJQsqaUBKTNV-1" source="2eYa-I5nlKgrahpi1qqB-110" target="2eYa-I5nlKgrahpi1qqB-109" edge="1">
          <mxGeometry relative="1" as="geometry">
            <Array as="points">
              <mxPoint x="970" y="810" />
            </Array>
          </mxGeometry>
        </mxCell>
        <mxCell id="2eYa-I5nlKgrahpi1qqB-115" style="edgeStyle=orthogonalEdgeStyle;rounded=0;orthogonalLoop=1;jettySize=auto;html=1;endArrow=classicThin;endFill=1;" parent="WIyWlLk6GJQsqaUBKTNV-1" source="2eYa-I5nlKgrahpi1qqB-110" target="2eYa-I5nlKgrahpi1qqB-113" edge="1">
          <mxGeometry relative="1" as="geometry">
            <Array as="points">
              <mxPoint x="1180" y="810" />
            </Array>
          </mxGeometry>
        </mxCell>
        <mxCell id="2eYa-I5nlKgrahpi1qqB-110" value="num2 != 0?" style="rhombus;whiteSpace=wrap;html=1;" parent="WIyWlLk6GJQsqaUBKTNV-1" vertex="1">
          <mxGeometry x="1020" y="770" width="100" height="80" as="geometry" />
        </mxCell>
        <mxCell id="2eYa-I5nlKgrahpi1qqB-116" style="edgeStyle=orthogonalEdgeStyle;rounded=0;orthogonalLoop=1;jettySize=auto;html=1;endArrow=classicThin;endFill=1;" parent="WIyWlLk6GJQsqaUBKTNV-1" source="2eYa-I5nlKgrahpi1qqB-113" target="2eYa-I5nlKgrahpi1qqB-107" edge="1">
          <mxGeometry relative="1" as="geometry">
            <Array as="points">
              <mxPoint x="1180" y="930" />
              <mxPoint x="1070" y="930" />
            </Array>
          </mxGeometry>
        </mxCell>
        <mxCell id="2eYa-I5nlKgrahpi1qqB-113" value="PRINT &quot;Quotient cannot be performed because second number is zero&quot;" style="rounded=0;whiteSpace=wrap;html=1;" parent="WIyWlLk6GJQsqaUBKTNV-1" vertex="1">
          <mxGeometry x="1090" y="848" width="180" height="60" as="geometry" />
        </mxCell>
        <mxCell id="2eYa-I5nlKgrahpi1qqB-117" value="Input" style="swimlane;fontStyle=0;childLayout=stackLayout;horizontal=1;startSize=26;horizontalStack=0;resizeParent=1;resizeParentMax=0;resizeLast=0;collapsible=1;marginBottom=0;" parent="WIyWlLk6GJQsqaUBKTNV-1" vertex="1">
          <mxGeometry x="450" y="140" width="100" height="160" as="geometry" />
        </mxCell>
        <mxCell id="2eYa-I5nlKgrahpi1qqB-118" value="num1" style="text;strokeColor=none;fillColor=none;align=left;verticalAlign=top;spacingLeft=4;spacingRight=4;overflow=hidden;rotatable=0;points=[[0,0.5],[1,0.5]];portConstraint=eastwest;" parent="2eYa-I5nlKgrahpi1qqB-117" vertex="1">
          <mxGeometry y="26" width="100" height="26" as="geometry" />
        </mxCell>
        <mxCell id="2eYa-I5nlKgrahpi1qqB-119" value="num2" style="text;strokeColor=none;fillColor=none;align=left;verticalAlign=top;spacingLeft=4;spacingRight=4;overflow=hidden;rotatable=0;points=[[0,0.5],[1,0.5]];portConstraint=eastwest;" parent="2eYa-I5nlKgrahpi1qqB-117" vertex="1">
          <mxGeometry y="52" width="100" height="26" as="geometry" />
        </mxCell>
        <mxCell id="2eYa-I5nlKgrahpi1qqB-120" value="menu" style="text;strokeColor=none;fillColor=none;align=left;verticalAlign=top;spacingLeft=4;spacingRight=4;overflow=hidden;rotatable=0;points=[[0,0.5],[1,0.5]];portConstraint=eastwest;" parent="2eYa-I5nlKgrahpi1qqB-117" vertex="1">
          <mxGeometry y="78" width="100" height="82" as="geometry" />
        </mxCell>
        <mxCell id="2eYa-I5nlKgrahpi1qqB-121" value="Process" style="swimlane;fontStyle=0;childLayout=stackLayout;horizontal=1;startSize=26;horizontalStack=0;resizeParent=1;resizeParentMax=0;resizeLast=0;collapsible=1;marginBottom=0;" parent="WIyWlLk6GJQsqaUBKTNV-1" vertex="1">
          <mxGeometry x="550" y="140" width="140" height="160" as="geometry">
            <mxRectangle x="580" y="150" width="60" height="26" as="alternateBounds" />
          </mxGeometry>
        </mxCell>
        <mxCell id="2eYa-I5nlKgrahpi1qqB-122" value="Get two numbers" style="text;strokeColor=none;fillColor=none;align=left;verticalAlign=top;spacingLeft=4;spacingRight=4;overflow=hidden;rotatable=0;points=[[0,0.5],[1,0.5]];portConstraint=eastwest;" parent="2eYa-I5nlKgrahpi1qqB-121" vertex="1">
          <mxGeometry y="26" width="140" height="26" as="geometry" />
        </mxCell>
        <mxCell id="2eYa-I5nlKgrahpi1qqB-123" value="Get menu" style="text;strokeColor=none;fillColor=none;align=left;verticalAlign=top;spacingLeft=4;spacingRight=4;overflow=hidden;rotatable=0;points=[[0,0.5],[1,0.5]];portConstraint=eastwest;" parent="2eYa-I5nlKgrahpi1qqB-121" vertex="1">
          <mxGeometry y="52" width="140" height="26" as="geometry" />
        </mxCell>
        <mxCell id="2eYa-I5nlKgrahpi1qqB-124" value="Process the two&#xa;numbers based&#xa;on the selected menu" style="text;strokeColor=none;fillColor=none;align=left;verticalAlign=top;spacingLeft=4;spacingRight=4;overflow=hidden;rotatable=0;points=[[0,0.5],[1,0.5]];portConstraint=eastwest;" parent="2eYa-I5nlKgrahpi1qqB-121" vertex="1">
          <mxGeometry y="78" width="140" height="52" as="geometry" />
        </mxCell>
        <mxCell id="2eYa-I5nlKgrahpi1qqB-130" value="Print result" style="text;strokeColor=none;fillColor=none;align=left;verticalAlign=top;spacingLeft=4;spacingRight=4;overflow=hidden;rotatable=0;points=[[0,0.5],[1,0.5]];portConstraint=eastwest;" parent="2eYa-I5nlKgrahpi1qqB-121" vertex="1">
          <mxGeometry y="130" width="140" height="30" as="geometry" />
        </mxCell>
        <mxCell id="2eYa-I5nlKgrahpi1qqB-125" value="Output" style="swimlane;fontStyle=0;childLayout=stackLayout;horizontal=1;startSize=26;horizontalStack=0;resizeParent=1;resizeParentMax=0;resizeLast=0;collapsible=1;marginBottom=0;" parent="WIyWlLk6GJQsqaUBKTNV-1" vertex="1">
          <mxGeometry x="690" y="140" width="100" height="160" as="geometry">
            <mxRectangle x="580" y="150" width="60" height="26" as="alternateBounds" />
          </mxGeometry>
        </mxCell>
        <mxCell id="2eYa-I5nlKgrahpi1qqB-126" value="result" style="text;strokeColor=none;fillColor=none;align=left;verticalAlign=top;spacingLeft=4;spacingRight=4;overflow=hidden;rotatable=0;points=[[0,0.5],[1,0.5]];portConstraint=eastwest;" parent="2eYa-I5nlKgrahpi1qqB-125" vertex="1">
          <mxGeometry y="26" width="100" height="134" as="geometry" />
        </mxCell>
        <mxCell id="2eYa-I5nlKgrahpi1qqB-132" value="Hierarchy Table" style="text;html=1;strokeColor=none;fillColor=none;align=center;verticalAlign=middle;whiteSpace=wrap;rounded=0;fontStyle=1;fontSize=18;" parent="WIyWlLk6GJQsqaUBKTNV-1" vertex="1">
          <mxGeometry x="70" y="60" width="100" height="40" as="geometry" />
        </mxCell>
        <mxCell id="2eYa-I5nlKgrahpi1qqB-133" value="Defining Diagram" style="text;html=1;strokeColor=none;fillColor=none;align=center;verticalAlign=middle;whiteSpace=wrap;rounded=0;fontStyle=1;fontSize=18;" parent="WIyWlLk6GJQsqaUBKTNV-1" vertex="1">
          <mxGeometry x="450" y="60" width="100" height="40" as="geometry" />
        </mxCell>
        <mxCell id="2eYa-I5nlKgrahpi1qqB-134" value="inputMenu" style="text;html=1;strokeColor=none;fillColor=none;align=center;verticalAlign=middle;whiteSpace=wrap;rounded=0;fontStyle=1;fontSize=18;" parent="WIyWlLk6GJQsqaUBKTNV-1" vertex="1">
          <mxGeometry x="890" y="60" width="100" height="40" as="geometry" />
        </mxCell>
        <mxCell id="2eYa-I5nlKgrahpi1qqB-135" value="add" style="text;html=1;strokeColor=none;fillColor=none;align=center;verticalAlign=middle;whiteSpace=wrap;rounded=0;fontStyle=1;fontSize=18;" parent="WIyWlLk6GJQsqaUBKTNV-1" vertex="1">
          <mxGeometry x="1350" y="60" width="100" height="40" as="geometry" />
        </mxCell>
        <mxCell id="2eYa-I5nlKgrahpi1qqB-136" value="multiply" style="text;html=1;strokeColor=none;fillColor=none;align=center;verticalAlign=middle;whiteSpace=wrap;rounded=0;fontStyle=1;fontSize=18;" parent="WIyWlLk6GJQsqaUBKTNV-1" vertex="1">
          <mxGeometry x="1350" y="270" width="100" height="40" as="geometry" />
        </mxCell>
        <mxCell id="2eYa-I5nlKgrahpi1qqB-137" value="subtract" style="text;html=1;strokeColor=none;fillColor=none;align=center;verticalAlign=middle;whiteSpace=wrap;rounded=0;fontStyle=1;fontSize=18;" parent="WIyWlLk6GJQsqaUBKTNV-1" vertex="1">
          <mxGeometry x="1350" y="500" width="100" height="40" as="geometry" />
        </mxCell>
        <mxCell id="2eYa-I5nlKgrahpi1qqB-139" value="divide" style="text;html=1;strokeColor=none;fillColor=none;align=center;verticalAlign=middle;whiteSpace=wrap;rounded=0;fontStyle=1;fontSize=18;" parent="WIyWlLk6GJQsqaUBKTNV-1" vertex="1">
          <mxGeometry x="890" y="670" width="100" height="40" as="geometry" />
        </mxCell>
        <mxCell id="vwoL3angQzreyFD2-pc3-0" value="&lt;div&gt;simpleCalculator (main)&lt;/div&gt;" style="text;html=1;strokeColor=none;fillColor=none;align=center;verticalAlign=middle;whiteSpace=wrap;rounded=0;fontStyle=1;fontSize=18;" vertex="1" parent="WIyWlLk6GJQsqaUBKTNV-1">
          <mxGeometry x="80" y="380" width="180" height="50" as="geometry" />
        </mxCell>
        <mxCell id="vwoL3angQzreyFD2-pc3-1" value="inputNum" style="text;html=1;strokeColor=none;fillColor=none;align=center;verticalAlign=middle;whiteSpace=wrap;rounded=0;fontStyle=1;fontSize=18;" vertex="1" parent="WIyWlLk6GJQsqaUBKTNV-1">
          <mxGeometry x="370" y="380" width="180" height="50" as="geometry" />
        </mxCell>
        <mxCell id="vwoL3angQzreyFD2-pc3-2" value="showResult" style="text;html=1;strokeColor=none;fillColor=none;align=center;verticalAlign=middle;whiteSpace=wrap;rounded=0;fontStyle=1;fontSize=18;" vertex="1" parent="WIyWlLk6GJQsqaUBKTNV-1">
          <mxGeometry x="390" y="760" width="140" height="50" as="geometry" />
        </mxCell>
      </root>
    </mxGraphModel>
  </diagram>
</mxfile>
